<svg width="333" height="75" viewBox="0 0 333 75" fill="none" xmlns="http://www.w3.org/2000/svg">
<path fill-rule="evenodd" clip-rule="evenodd" d="M0 46.0917V0H61.9627V11.5229H16.8989V17.2844H56.3297V28.8073H16.8989V46.0917H0ZM73.2287 46.0917V40.3302H67.5957V5.76147H73.2287V0H123.925V5.76147H129.558V40.3302H123.925V46.0917H73.2287ZM112.659 11.5229H84.4946V34.5688H112.659V11.5229ZM135.191 0V46.0917H152.09V34.5688H180.255V46.0917H197.154V34.5688H191.521V28.8073H197.154V5.76147H191.521V0H135.191ZM180.255 23.0458H152.09V11.5229H180.255V23.0458ZM208.42 46.0917V40.3302H202.787V5.76147H208.42V0H264.75V11.5229H219.686V34.5688H247.851V28.8073H230.952V17.2844H264.75V40.3302H259.117V46.0917H208.42ZM332.345 0H270.383V46.0917H332.345V34.5688H287.282V28.8073H326.712V17.2844H287.282V11.5229H332.345V0ZM5.32002 74.1007V66.6399H13.3001V64.7747H14.6301V57.3139H13.3001V55.4487H0V74.1007H5.32002ZM5.32002 62.9095V59.1791H9.31004V62.9095H5.32002ZM22.5997 74.1007V66.6399H26.5897V74.1007H31.9097V66.6399H30.5797V62.9095H31.9097V57.3139H30.5797V55.4487H17.2797V74.1007H22.5997ZM22.5997 62.9095V59.1791H26.5897V62.9095H22.5997ZM35.8894 74.1007V72.2355H34.5594V57.3139H35.8894V55.4487H49.1894V59.1791H39.8794V62.9095H43.8694V66.6399H39.8794V70.3703H49.1894V74.1007H35.8894ZM57.1591 74.1007V64.7747H58.4891V66.6399H59.8191V68.5051H61.1491V66.6399H62.4791V64.7747H63.8091V74.1007H69.1291V55.4487H63.8091V57.3139H62.4791V59.1791H61.1491V61.0443H59.8191V59.1791H58.4891V57.3139H57.1591V55.4487H51.839V74.1007H57.1591ZM71.7943 55.4487H85.0944V59.1791H81.1043V70.3703H85.0944V74.1007H71.7943V70.3703H75.7843V59.1791H71.7943V55.4487ZM101.049 74.1007V72.2355H102.379V55.4487H97.0592V70.3703H93.0692V55.4487H87.7492V72.2355H89.0792V74.1007H101.049ZM110.349 64.7747V74.1007H105.029V55.4487H110.349V57.3139H111.679V59.1791H113.009V61.0443H114.339V59.1791H115.669V57.3139H116.999V55.4487H122.319V74.1007H116.999V64.7747H115.669V66.6399H114.339V68.5051H113.009V66.6399H111.679V64.7747H110.349ZM148.914 74.1007V72.2355H150.244V66.6399H148.914V62.9095H150.244V57.3139H148.914V55.4487H135.614V74.1007H148.914ZM144.924 70.3703H140.934V66.6399H144.924V70.3703ZM140.934 62.9095V59.1791H144.924V62.9095H140.934ZM166.194 72.2355V74.1007H154.223V72.2355H152.893V55.4487H158.213V70.3703H162.203V55.4487H167.524V72.2355H166.194ZM183.473 55.4487H170.173V59.1791H174.163V70.3703H170.173V74.1007H183.473V70.3703H179.483V59.1791H183.473V55.4487ZM186.128 55.4487H191.448V70.3703H200.758V74.1007H186.128V55.4487ZM215.378 74.1007V72.2355H216.708V70.3703H218.038V59.1791H216.708V57.3139H215.378V55.4487H203.408V74.1007H215.378ZM211.388 59.1791V61.0443H212.718V68.5051H211.388V70.3703H208.728V59.1791H211.388ZM231.317 70.3703H240.627V66.6399H232.647V64.7747H231.317V57.3139H232.647V55.4487H245.947V59.1791H236.637V62.9095H244.617V64.7747H245.947V72.2355H244.617V74.1007H231.317V70.3703ZM249.927 72.2355V74.1007H263.227V70.3703H253.917V66.6399H257.907V62.9095H253.917V59.1791H263.227V55.4487H249.927V57.3139H248.597V72.2355H249.927ZM271.196 74.1007H265.876V55.4487H279.176V57.3139H280.506V62.9095H279.176V66.6399H280.506V74.1007H275.186V66.6399H271.196V74.1007ZM271.196 62.9095H275.186V59.1791H271.196V62.9095ZM292.466 74.1007V72.2355H293.796V70.3703H295.126V68.5051H296.456V66.6399H297.786V55.4487H292.466V64.7747H291.136V66.6399H289.806V68.5051H288.476V55.4487H283.156V74.1007H292.466ZM301.766 74.1007V72.2355H300.436V57.3139H301.766V55.4487H315.066V59.1791H305.756V62.9095H309.746V66.6399H305.756V70.3703H315.066V74.1007H301.766ZM317.715 74.1007H323.035V66.6399H327.025V74.1007H332.345V66.6399H331.015V62.9095H332.345V57.3139H331.015V55.4487H317.715V74.1007ZM327.025 62.9095H323.035V59.1791H327.025V62.9095Z" fill="white"/>
<path fill-rule="evenodd" clip-rule="evenodd" d="M0 46.0917V0H61.9627V11.5229H16.8989V17.2844H56.3297V28.8073H16.8989V46.0917H0ZM73.2287 46.0917V40.3302H67.5957V5.76147H73.2287V0H123.925V5.76147H129.558V40.3302H123.925V46.0917H73.2287ZM112.659 11.5229H84.4946V34.5688H112.659V11.5229ZM135.191 0V46.0917H152.09V34.5688H180.255V46.0917H197.154V34.5688H191.521V28.8073H197.154V5.76147H191.521V0H135.191ZM180.255 23.0458H152.09V11.5229H180.255V23.0458ZM208.42 46.0917V40.3302H202.787V5.76147H208.42V0H264.75V11.5229H219.686V34.5688H247.851V28.8073H230.952V17.2844H264.75V40.3302H259.117V46.0917H208.42ZM332.345 0H270.383V46.0917H332.345V34.5688H287.282V28.8073H326.712V17.2844H287.282V11.5229H332.345V0ZM5.32002 74.1007V66.6399H13.3001V64.7747H14.6301V57.3139H13.3001V55.4487H0V74.1007H5.32002ZM5.32002 62.9095V59.1791H9.31004V62.9095H5.32002ZM22.5997 74.1007V66.6399H26.5897V74.1007H31.9097V66.6399H30.5797V62.9095H31.9097V57.3139H30.5797V55.4487H17.2797V74.1007H22.5997ZM22.5997 62.9095V59.1791H26.5897V62.9095H22.5997ZM35.8894 74.1007V72.2355H34.5594V57.3139H35.8894V55.4487H49.1894V59.1791H39.8794V62.9095H43.8694V66.6399H39.8794V70.3703H49.1894V74.1007H35.8894ZM57.1591 74.1007V64.7747H58.4891V66.6399H59.8191V68.5051H61.1491V66.6399H62.4791V64.7747H63.8091V74.1007H69.1291V55.4487H63.8091V57.3139H62.4791V59.1791H61.1491V61.0443H59.8191V59.1791H58.4891V57.3139H57.1591V55.4487H51.839V74.1007H57.1591ZM71.7943 55.4487H85.0944V59.1791H81.1043V70.3703H85.0944V74.1007H71.7943V70.3703H75.7843V59.1791H71.7943V55.4487ZM101.049 74.1007V72.2355H102.379V55.4487H97.0592V70.3703H93.0692V55.4487H87.7492V72.2355H89.0792V74.1007H101.049ZM110.349 64.7747V74.1007H105.029V55.4487H110.349V57.3139H111.679V59.1791H113.009V61.0443H114.339V59.1791H115.669V57.3139H116.999V55.4487H122.319V74.1007H116.999V64.7747H115.669V66.6399H114.339V68.5051H113.009V66.6399H111.679V64.7747H110.349ZM148.914 74.1007V72.2355H150.244V66.6399H148.914V62.9095H150.244V57.3139H148.914V55.4487H135.614V74.1007H148.914ZM144.924 70.3703H140.934V66.6399H144.924V70.3703ZM140.934 62.9095V59.1791H144.924V62.9095H140.934ZM166.194 72.2355V74.1007H154.223V72.2355H152.893V55.4487H158.213V70.3703H162.203V55.4487H167.524V72.2355H166.194ZM183.473 55.4487H170.173V59.1791H174.163V70.3703H170.173V74.1007H183.473V70.3703H179.483V59.1791H183.473V55.4487ZM186.128 55.4487H191.448V70.3703H200.758V74.1007H186.128V55.4487ZM215.378 74.1007V72.2355H216.708V70.3703H218.038V59.1791H216.708V57.3139H215.378V55.4487H203.408V74.1007H215.378ZM211.388 59.1791V61.0443H212.718V68.5051H211.388V70.3703H208.728V59.1791H211.388ZM231.317 70.3703H240.627V66.6399H232.647V64.7747H231.317V57.3139H232.647V55.4487H245.947V59.1791H236.637V62.9095H244.617V64.7747H245.947V72.2355H244.617V74.1007H231.317V70.3703ZM249.927 72.2355V74.1007H263.227V70.3703H253.917V66.6399H257.907V62.9095H253.917V59.1791H263.227V55.4487H249.927V57.3139H248.597V72.2355H249.927ZM271.196 74.1007H265.876V55.4487H279.176V57.3139H280.506V62.9095H279.176V66.6399H280.506V74.1007H275.186V66.6399H271.196V74.1007ZM271.196 62.9095H275.186V59.1791H271.196V62.9095ZM292.466 74.1007V72.2355H293.796V70.3703H295.126V68.5051H296.456V66.6399H297.786V55.4487H292.466V64.7747H291.136V66.6399H289.806V68.5051H288.476V55.4487H283.156V74.1007H292.466ZM301.766 74.1007V72.2355H300.436V57.3139H301.766V55.4487H315.066V59.1791H305.756V62.9095H309.746V66.6399H305.756V70.3703H315.066V74.1007H301.766ZM317.715 74.1007H323.035V66.6399H327.025V74.1007H332.345V66.6399H331.015V62.9095H332.345V57.3139H331.015V55.4487H317.715V74.1007ZM327.025 62.9095H323.035V59.1791H327.025V62.9095Z" fill="url(#paint0_radial_1_12)"/>
<defs>
<radialGradient id="paint0_radial_1_12" cx="0" cy="0" r="1" gradientUnits="userSpaceOnUse" gradientTransform="translate(166 74) rotate(-90) scale(92.5 1441.35)">
<stop stop-color="white"/>
<stop offset="1" stop-color="#AD8EC9"/>
</radialGradient>
</defs>
</svg>
